<?xml version="1.0" standalone="no"?>
<!DOCTYPE svg PUBLIC "-//W3C//DTD SVG 20010904//EN"
 "http://www.w3.org/TR/2001/REC-SVG-20010904/DTD/svg10.dtd">
<svg version="1.0" xmlns="http://www.w3.org/2000/svg"
 width="366.000000pt" height="600.000000pt" viewBox="0 0 366.000000 600.000000"
 preserveAspectRatio="xMidYMid meet">
<g transform="translate(0.000000,600.000000) scale(0.100000,-0.100000)"
fill="#000000" stroke="none">
<path d="M1518 4501 c-175 -57 -276 -184 -324 -406 -34 -161 -18 -460 43 -800
42 -234 7 -1094 -57 -1395 -36 -170 -39 -247 -10 -278 30 -32 65 -27 132 18
33 22 67 40 75 40 8 0 41 -27 72 -60 78 -81 117 -83 225 -14 97 61 124 59 216
-16 56 -46 74 -56 126 -64 63 -11 116 15 167 83 53 70 78 75 144 32 26 -17 52
-31 60 -31 19 0 52 36 59 66 7 27 0 160 -16 289 -4 39 -7 140 -5 225 3 170
-10 523 -25 665 -6 50 -17 167 -26 260 -38 416 -94 658 -218 934 -101 226
-225 384 -343 439 -78 35 -210 41 -295 13z m290 -26 c160 -73 339 -368 443
-730 49 -170 78 -342 109 -657 40 -409 50 -588 50 -861 -1 -146 5 -281 14
-365 16 -140 13 -185 -12 -214 -21 -25 -40 -22 -91 12 -24 17 -52 30 -61 30
-24 0 -61 -31 -94 -79 -65 -93 -165 -94 -276 -1 -84 70 -133 75 -210 19 -106
-77 -156 -75 -226 6 -59 70 -84 72 -168 15 -67 -45 -76 -47 -100 -21 -30 33
-29 80 3 236 39 190 48 260 56 415 3 69 10 188 16 265 17 257 11 613 -11 765
-50 328 -54 367 -54 555 0 163 3 201 21 266 61 219 177 335 373 373 54 10 165
-5 218 -29z"/>
<path d="M1835 4069 c-9 -29 21 -55 42 -37 21 17 12 52 -14 56 -15 2 -23 -4
-28 -19z"/>
<path d="M1482 3988 c-16 -16 -15 -33 4 -48 22 -19 54 12 38 37 -14 22 -27 26
-42 11z"/>
</g>
</svg>
