<?xml version="1.0" standalone="no"?>
<!DOCTYPE svg PUBLIC "-//W3C//DTD SVG 20010904//EN"
 "http://www.w3.org/TR/2001/REC-SVG-20010904/DTD/svg10.dtd">
<svg version="1.0" xmlns="http://www.w3.org/2000/svg"
 width="366.000000pt" height="600.000000pt" viewBox="0 0 366.000000 600.000000"
 preserveAspectRatio="xMidYMid meet">
<g transform="translate(0.000000,600.000000) scale(0.100000,-0.100000)"
fill="#000000" stroke="none">
<path d="M1713 4525 c-183 -51 -297 -185 -367 -430 -46 -161 -56 -265 -66
-680 -10 -408 -12 -457 -35 -775 -8 -107 -17 -259 -20 -337 -3 -78 -15 -193
-26 -255 -11 -62 -23 -149 -26 -193 -5 -72 -3 -83 17 -107 30 -39 61 -35 127
12 31 22 67 40 80 40 22 0 83 -53 83 -72 0 -5 15 -17 33 -28 50 -31 93 -26
167 20 88 54 129 54 196 1 119 -94 207 -102 277 -24 69 76 77 83 98 83 11 0
34 -10 51 -21 39 -28 77 -27 101 2 17 21 19 35 14 114 -3 50 -11 133 -17 185
-7 54 -10 138 -6 195 6 96 -2 369 -25 890 -6 132 -12 254 -14 270 -2 17 -7 98
-10 180 -10 249 -44 440 -111 627 -54 151 -135 248 -243 289 -73 28 -206 35
-278 14z m295 -40 c73 -33 129 -89 170 -172 53 -104 111 -316 131 -478 28
-215 73 -1260 70 -1605 -1 -98 5 -199 16 -275 26 -184 2 -233 -88 -181 -24 14
-52 26 -62 26 -10 0 -47 -30 -81 -67 l-63 -68 -59 0 c-49 1 -67 6 -102 30
-123 86 -123 87 -166 82 -24 -2 -66 -20 -100 -41 -87 -53 -124 -50 -183 12
-67 71 -82 77 -134 52 -23 -11 -57 -31 -76 -45 -41 -30 -42 -30 -72 -6 -21 17
-24 27 -23 83 1 34 11 113 23 173 14 70 25 181 31 305 5 107 14 247 20 310 15
176 39 705 39 887 0 460 70 732 231 894 49 50 79 71 125 88 120 45 247 43 353
-4z"/>
<path d="M1650 3765 c-16 -19 -5 -47 17 -43 22 4 29 43 9 51 -8 3 -20 -1 -26
-8z"/>
<path d="M1977 3774 c-10 -10 -9 -42 2 -48 18 -11 42 6 39 28 -3 21 -28 33
-41 20z"/>
</g>
</svg>
