<?xml version="1.0" standalone="no"?>
<!DOCTYPE svg PUBLIC "-//W3C//DTD SVG 20010904//EN"
 "http://www.w3.org/TR/2001/REC-SVG-20010904/DTD/svg10.dtd">
<svg version="1.0" xmlns="http://www.w3.org/2000/svg"
 width="366.000000pt" height="600.000000pt" viewBox="0 0 366.000000 600.000000"
 preserveAspectRatio="xMidYMid meet">
<g transform="translate(0.000000,600.000000) scale(0.100000,-0.100000)"
fill="#000000" stroke="none">
<path d="M1846 4596 l-32 -33 -28 23 c-44 39 -94 27 -111 -25 -13 -42 41 -125
116 -176 l42 -30 45 50 c79 87 105 178 60 209 -34 24 -57 19 -92 -18z m94 -12
c13 -32 -20 -108 -73 -169 l-35 -39 -43 29 c-46 33 -99 107 -99 140 0 53 64
62 103 15 29 -34 37 -37 37 -15 0 25 47 65 75 65 18 0 28 -7 35 -26z"/>
<path d="M1725 4166 c-137 -44 -230 -147 -289 -316 -47 -136 -56 -220 -66
-625 -9 -353 -24 -666 -35 -725 -3 -14 -10 -108 -15 -210 -5 -106 -18 -230
-30 -290 -12 -58 -21 -129 -22 -159 -1 -48 3 -58 26 -78 15 -13 31 -23 36 -23
5 0 28 15 53 34 73 56 80 55 141 -8 69 -72 103 -75 190 -16 80 54 99 53 180
-16 98 -84 173 -80 252 11 50 60 66 65 104 35 30 -23 73 -26 90 -5 19 23 23
86 9 166 -7 43 -13 173 -14 309 -2 247 -12 633 -20 785 -3 50 -10 188 -15 308
-12 238 -26 341 -66 469 -54 173 -137 287 -244 337 -65 31 -198 39 -265 17z
m251 -25 c93 -42 178 -148 228 -289 48 -134 66 -258 81 -546 17 -324 35 -937
34 -1126 -1 -74 4 -164 10 -200 16 -96 14 -175 -5 -194 -20 -20 -23 -20 -59 4
-51 34 -74 27 -132 -37 -51 -57 -53 -58 -106 -58 -44 0 -61 5 -95 30 -23 17
-56 41 -74 53 -45 32 -98 26 -161 -18 -72 -52 -108 -48 -166 18 -56 64 -79 66
-144 16 -52 -41 -76 -41 -95 0 -15 30 -12 59 23 253 8 45 19 164 24 265 6 101
15 228 20 283 15 151 34 618 28 683 -8 89 11 345 34 456 47 231 162 382 323
422 65 17 176 10 232 -15z"/>
<path d="M1651 3557 c-21 -21 -13 -47 14 -47 20 0 25 5 25 24 0 27 -22 40 -39
23z"/>
<path d="M1970 3554 c-11 -12 -11 -18 2 -30 16 -16 48 -9 48 10 0 13 -20 36
-31 36 -4 0 -12 -7 -19 -16z"/>
</g>
</svg>
