<?xml version="1.0" standalone="no"?>
<!DOCTYPE svg PUBLIC "-//W3C//DTD SVG 20010904//EN"
 "http://www.w3.org/TR/2001/REC-SVG-20010904/DTD/svg10.dtd">
<svg version="1.0" xmlns="http://www.w3.org/2000/svg"
 width="366.000000pt" height="600.000000pt" viewBox="0 0 366.000000 600.000000"
 preserveAspectRatio="xMidYMid meet">
<g transform="translate(0.000000,600.000000) scale(0.100000,-0.100000)"
fill="#000000" stroke="none">
<path d="M1700 1370 c-123 -26 -251 -120 -335 -245 -137 -207 -215 -578 -215
-1026 0 -178 17 -104 23 104 11 335 44 541 119 735 121 312 335 457 620 421
233 -29 363 -187 459 -558 49 -191 74 -399 81 -689 3 -123 18 -142 18 -22 -1
408 -72 790 -192 1023 -59 113 -113 169 -213 218 -82 41 -87 42 -202 45 -65 2
-138 -1 -163 -6z"/>
<path d="M1605 414 c-9 -9 -14 -21 -12 -27 6 -18 33 -31 51 -24 21 8 21 53 0
61 -21 8 -20 8 -39 -10z"/>
<path d="M2011 416 c-26 -31 14 -71 45 -45 21 17 14 53 -12 57 -11 2 -26 -4
-33 -12z"/>
</g>
</svg>
