<?xml version="1.0" standalone="no"?>
<!DOCTYPE svg PUBLIC "-//W3C//DTD SVG 20010904//EN"
 "http://www.w3.org/TR/2001/REC-SVG-20010904/DTD/svg10.dtd">
<svg version="1.0" xmlns="http://www.w3.org/2000/svg"
 width="366.000000pt" height="600.000000pt" viewBox="0 0 366.000000 600.000000"
 preserveAspectRatio="xMidYMid meet">
<g transform="translate(0.000000,600.000000) scale(0.100000,-0.100000)"
fill="#000000" stroke="none">
<path d="M1740 4259 c-178 -30 -337 -201 -386 -415 -26 -113 -29 -355 -8 -555
25 -229 25 -505 0 -654 -31 -194 -66 -366 -112 -547 -48 -195 -54 -254 -26
-288 25 -31 62 -28 118 9 65 43 85 40 149 -20 86 -81 122 -79 254 16 54 39 88
33 166 -30 59 -47 99 -65 147 -65 40 0 47 4 108 70 39 42 73 70 85 70 11 0 40
-14 64 -30 52 -35 60 -36 93 -11 32 26 45 72 59 216 16 161 16 777 0 930 -51
500 -158 895 -298 1101 -106 156 -255 229 -413 203z m204 -37 c234 -105 392
-484 478 -1147 21 -163 23 -218 23 -590 -1 -432 -11 -584 -43 -640 -22 -37
-56 -43 -91 -17 -72 53 -109 48 -159 -23 -63 -89 -125 -103 -206 -47 -146 102
-161 104 -258 38 -96 -65 -129 -65 -201 2 -29 27 -61 52 -72 56 -13 5 -43 -5
-93 -31 -83 -43 -101 -40 -116 19 -7 28 1 74 42 239 58 230 95 412 117 574 18
127 21 407 6 540 -34 294 -32 525 5 668 21 82 77 187 132 248 113 126 297 173
436 111z"/>
<path d="M2003 3484 c-16 -12 -26 -13 -42 -5 -30 16 -50 13 -27 -4 28 -21 70
-19 91 5 21 23 9 25 -22 4z"/>
<path d="M1660 3475 c-14 -17 -46 -20 -55 -5 -8 12 -25 13 -25 1 0 -5 13 -14
29 -19 31 -11 71 2 79 26 5 17 -13 15 -28 -3z"/>
</g>
</svg>
