<?xml version="1.0" standalone="no"?>
<!DOCTYPE svg PUBLIC "-//W3C//DTD SVG 20010904//EN"
 "http://www.w3.org/TR/2001/REC-SVG-20010904/DTD/svg10.dtd">
<svg version="1.0" xmlns="http://www.w3.org/2000/svg"
 width="365.000000pt" height="600.000000pt" viewBox="0 0 365.000000 600.000000"
 preserveAspectRatio="xMidYMid meet">
<g transform="translate(0.000000,600.000000) scale(0.100000,-0.100000)"
fill="#000000" stroke="none">
<path d="M2246 4280 c-125 -49 -213 -193 -264 -430 -40 -186 -58 -374 -67
-710 -15 -552 -32 -912 -51 -1055 -20 -152 -20 -210 -1 -239 27 -40 53 -42
109 -7 27 17 56 31 65 31 9 0 40 -22 69 -50 67 -63 103 -66 184 -15 30 19 66
35 80 35 15 0 52 -18 84 -41 98 -70 173 -62 240 25 36 48 59 53 106 22 47 -31
83 -33 110 -6 28 28 29 86 4 232 -14 83 -44 543 -44 676 l0 63 63 62 c96 94
136 201 87 227 -19 10 -49 1 -157 -47 -20 -8 -33 42 -33 127 0 110 -18 363
-36 505 -53 422 -187 616 -427 615 -46 -1 -90 -8 -121 -20z m258 -23 c134 -62
215 -208 261 -477 18 -108 31 -251 46 -510 6 -113 16 -211 21 -217 16 -19 43
-16 99 13 56 28 92 28 97 2 7 -37 -47 -128 -110 -189 l-63 -60 2 -107 c4 -229
23 -508 44 -656 18 -130 20 -160 9 -185 -17 -43 -44 -48 -90 -17 -57 37 -91
34 -131 -11 -18 -21 -44 -46 -58 -55 -38 -26 -101 -23 -142 7 -87 62 -140 73
-188 38 -87 -65 -128 -65 -189 3 -53 57 -81 60 -144 17 -71 -48 -112 -13 -104
92 2 33 11 114 20 180 15 122 29 410 46 989 10 347 20 472 50 641 58 328 139
466 305 522 58 19 152 10 219 -20z"/>
<path d="M2187 3663 c-11 -10 -8 -41 4 -49 6 -3 18 1 27 9 13 13 13 19 2 31
-14 17 -23 20 -33 9z"/>
<path d="M2470 3654 c-11 -12 -10 -18 3 -32 16 -15 18 -15 34 0 13 14 14 20 3
32 -7 9 -16 16 -20 16 -4 0 -13 -7 -20 -16z"/>
<path d="M1153 4275 c-137 -42 -232 -149 -293 -328 -48 -140 -63 -261 -80
-637 -6 -129 -15 -239 -20 -244 -6 -5 -39 4 -84 23 -78 34 -102 36 -119 10
-23 -36 38 -141 113 -196 102 -76 94 -56 86 -211 -4 -75 -11 -222 -16 -327 -5
-117 -16 -230 -29 -295 -27 -137 -28 -211 -1 -235 28 -26 63 -22 111 14 24 17
52 31 62 31 11 0 39 -18 63 -40 69 -64 110 -65 185 -5 62 49 105 48 173 -4 67
-51 88 -61 126 -61 46 0 81 22 118 74 38 53 66 59 113 25 41 -29 70 -22 92 23
18 36 18 45 3 165 -10 85 -17 263 -20 528 -5 423 -26 837 -51 1046 -30 240
-104 458 -189 556 -20 23 -64 55 -98 72 -52 26 -72 31 -132 30 -39 0 -90 -6
-113 -14z m234 -25 c117 -51 203 -208 257 -466 40 -190 65 -580 76 -1194 5
-267 14 -507 19 -535 17 -88 14 -152 -10 -176 l-20 -20 -45 26 c-58 34 -85 28
-124 -27 -44 -60 -64 -71 -120 -66 -34 4 -60 14 -86 34 -104 83 -135 85 -224
12 -52 -43 -99 -39 -152 12 -52 49 -85 52 -147 10 -52 -35 -64 -37 -91 -10
-26 26 -25 50 5 211 19 100 28 192 35 364 5 127 13 262 16 302 4 39 4 82 0 96
-3 15 -32 44 -74 74 -80 59 -134 133 -130 178 4 36 22 36 101 -1 66 -30 95
-31 106 -1 4 12 11 99 15 192 18 455 45 623 128 788 90 181 300 270 465 197z"/>
<path d="M1390 3625 c0 -22 4 -26 23 -23 14 2 22 10 22 23 0 13 -8 21 -22 23
-19 3 -23 -1 -23 -23z"/>
<path d="M1096 3624 c-8 -21 1 -34 24 -34 19 0 30 17 23 38 -7 17 -40 15 -47
-4z"/>
</g>
</svg>
