<?xml version="1.0" standalone="no"?>
<!DOCTYPE svg PUBLIC "-//W3C//DTD SVG 20010904//EN"
 "http://www.w3.org/TR/2001/REC-SVG-20010904/DTD/svg10.dtd">
<svg version="1.0" xmlns="http://www.w3.org/2000/svg"
 width="366.000000pt" height="600.000000pt" viewBox="0 0 366.000000 600.000000"
 preserveAspectRatio="xMidYMid meet">
<g transform="translate(0.000000,600.000000) scale(0.100000,-0.100000)"
fill="#000000" stroke="none">
<path d="M1710 4238 c-221 -33 -353 -234 -336 -511 3 -53 20 -177 37 -275 17
-97 37 -222 45 -277 26 -189 25 -191 -93 -136 -104 48 -164 54 -206 21 -37
-29 -43 -71 -18 -123 16 -33 40 -55 117 -106 140 -93 185 -177 169 -314 -9
-81 -69 -372 -106 -516 -37 -143 -38 -203 -4 -236 32 -33 43 -32 105 11 69 47
92 46 143 -4 47 -46 90 -66 124 -57 13 3 53 26 89 50 87 60 112 60 198 -4 113
-84 168 -82 247 9 29 32 61 61 71 63 11 3 44 -6 74 -20 52 -24 56 -24 80 -8
52 34 53 39 44 570 -9 528 -16 620 -70 886 -58 284 -139 539 -217 680 -121
219 -298 325 -493 297z m142 -19 c231 -48 385 -281 507 -766 87 -347 112 -549
117 -958 9 -638 9 -629 -24 -667 -20 -23 -50 -23 -87 2 -54 35 -80 27 -150
-45 -57 -60 -65 -65 -104 -65 -47 0 -90 19 -138 61 -40 35 -93 50 -133 39 -16
-5 -50 -25 -76 -44 -62 -45 -116 -61 -194 -61 -66 0 -113 58 -92 114 8 20 26
58 40 82 77 133 80 135 125 103 44 -31 64 -26 91 23 12 22 24 56 27 77 7 51
-37 74 -110 58 -53 -12 -107 -57 -166 -137 l-63 -87 -32 2 c-27 2 -33 8 -35
28 -6 42 40 183 85 258 101 168 157 220 263 242 53 12 93 25 88 30 -5 5 -62
43 -127 84 -103 65 -120 80 -130 112 -21 66 17 98 102 86 27 -4 81 -30 130
-63 48 -31 92 -57 97 -57 17 0 24 97 10 170 -53 278 -22 661 72 874 69 154
244 237 410 195z"/>
<path d="M1924 3515 c-8 -19 3 -35 26 -35 19 0 30 17 23 38 -6 17 -42 15 -49
-3z"/>
<path d="M1603 3454 c-3 -8 2 -23 11 -32 14 -15 18 -15 31 -1 9 9 13 23 9 32
-8 21 -43 22 -51 1z"/>
</g>
</svg>
